<?xml version="1.0" encoding="UTF-8"?>
<svg version="1.1" xmlns="http://www.w3.org/2000/svg" width="672" height="672">
<path d="M0 0 C1.22673935 -0.00708481 2.4534787 -0.01416962 3.71739197 -0.02146912 C5.0739292 -0.01917537 6.43046608 -0.01666568 7.78700256 -0.01396179 C9.21788804 -0.01830975 10.64877119 -0.02349318 12.07965088 -0.02944946 C15.96394961 -0.04284164 19.84815105 -0.04341791 23.73246837 -0.04088616 C26.97555912 -0.03981661 30.21863018 -0.0446994 33.46171671 -0.04949158 C41.11280354 -0.06058749 48.76384127 -0.06102369 56.41493225 -0.05497742 C64.30729507 -0.04893637 72.19947967 -0.0612517 80.09181207 -0.08254749 C86.8689964 -0.1001617 93.64612399 -0.10616514 100.42333037 -0.10290974 C104.47057253 -0.10109647 108.51768755 -0.10373738 112.56490898 -0.11762428 C116.37100916 -0.13019516 120.17683144 -0.12826572 123.98292732 -0.11521339 C125.37891865 -0.11284644 126.77492948 -0.1155866 128.17089844 -0.12383652 C130.07818081 -0.1342945 131.98554226 -0.12440592 133.89282227 -0.11352539 C134.95967223 -0.11369313 136.0265222 -0.11386087 137.12570095 -0.1140337 C140.49416876 0.32361467 142.32595889 1.19436388 145.00990295 3.26069641 C147.30375995 6.4693176 147.26314537 9.37841609 147.27059937 13.25079346 C147.27768417 14.47753281 147.28476898 15.70427216 147.29206848 16.96818542 C147.28977474 18.32472266 147.28726505 19.68125954 147.28456116 21.03779602 C147.28890912 22.4686815 147.29409255 23.89956465 147.30004883 25.33044434 C147.313441 29.21474307 147.31401727 33.09894451 147.31148553 36.98326182 C147.31041598 40.22635258 147.31529877 43.46942363 147.32009095 46.71251017 C147.33118686 54.36359699 147.33162305 62.01463473 147.32557678 69.66572571 C147.31953574 77.55808852 147.33185106 85.45027312 147.35314685 93.34260553 C147.37076106 100.11978986 147.37676451 106.89691745 147.37350911 113.67412382 C147.37169584 117.72136598 147.37433674 121.76848101 147.38822365 125.81570244 C147.40079452 129.62180262 147.39886509 133.42762489 147.38581276 137.23372078 C147.38344581 138.6297121 147.38618597 140.02572294 147.39443588 141.42169189 C147.40489387 143.32897426 147.39500529 145.23633572 147.38412476 147.14361572 C147.3842925 148.21046569 147.38446024 149.27731565 147.38463306 150.37649441 C146.94698469 153.74496222 146.07623548 155.57675235 144.00990295 158.26069641 C140.80128176 160.55455341 137.89218327 160.51393882 134.01980591 160.52139282 C132.79306656 160.52847763 131.56632721 160.53556244 130.30241394 160.54286194 C128.94587671 160.54056819 127.58933982 160.53805851 126.23280334 160.53535461 C124.80191787 160.53970257 123.37103472 160.544886 121.94015503 160.55084229 C118.0558563 160.56423446 114.17165486 160.56481073 110.28733754 160.56227899 C107.04424679 160.56120944 103.80117573 160.56609222 100.5580892 160.57088441 C92.90700237 160.58198031 85.25596464 160.58241651 77.60487366 160.57637024 C69.71251084 160.5703292 61.82032624 160.58264452 53.92799383 160.60394031 C47.15080951 160.62155452 40.37368192 160.62755796 33.59647554 160.62430257 C29.54923338 160.6224893 25.50211836 160.6251302 21.45489693 160.63901711 C17.64879675 160.65158798 13.84297447 160.64965855 10.03687859 160.63660622 C8.64088726 160.63423926 7.24487642 160.63697943 5.84890747 160.64522934 C3.9416251 160.65568732 2.03426365 160.64579875 0.12698364 160.63491821 C-1.47329131 160.63516983 -1.47329131 160.63516983 -3.10589504 160.63542652 C-6.47436285 160.19777815 -8.30615298 159.32702894 -10.99009705 157.26069641 C-13.28395405 154.05207522 -13.24333946 151.14297673 -13.25079346 147.27059937 C-13.25787827 146.04386002 -13.26496307 144.81712067 -13.27226257 143.5532074 C-13.26996883 142.19667016 -13.26745914 140.84013328 -13.26475525 139.4835968 C-13.26910321 138.05271132 -13.27428664 136.62182817 -13.28024292 135.19094849 C-13.29363509 131.30664976 -13.29421136 127.42244832 -13.29167962 123.538131 C-13.29061007 120.29504025 -13.29549286 117.05196919 -13.30028504 113.80888265 C-13.31138095 106.15779583 -13.31181715 98.5067581 -13.30577087 90.85566711 C-13.29972983 82.9633043 -13.31204515 75.0711197 -13.33334094 67.17878729 C-13.35095515 60.40160296 -13.3569586 53.62447537 -13.3537032 46.847269 C-13.35188993 42.80002684 -13.35453084 38.75291182 -13.36841774 34.70569038 C-13.38098861 30.89959021 -13.37905918 27.09376793 -13.36600685 23.28767204 C-13.3636399 21.89168072 -13.36638006 20.49566988 -13.37462997 19.09970093 C-13.38508796 17.19241856 -13.37519938 15.2850571 -13.36431885 13.3777771 C-13.36448659 12.31092713 -13.36465433 11.24407717 -13.36482716 10.14489841 C-12.92717878 6.77643061 -12.05642958 4.94464048 -9.99009705 2.26069641 C-6.78147586 -0.03316059 -3.87237736 0.007454 0 0 Z " fill="#020100" transform="translate(268.99009704589844,255.7393035888672)"/>
<path d="M0 0 C1.22673935 -0.00708481 2.4534787 -0.01416962 3.71739197 -0.02146912 C5.0739292 -0.01917537 6.43046608 -0.01666568 7.78700256 -0.01396179 C9.21788804 -0.01830975 10.64877119 -0.02349318 12.07965088 -0.02944946 C15.96394961 -0.04284164 19.84815105 -0.04341791 23.73246837 -0.04088616 C26.97555912 -0.03981661 30.21863018 -0.0446994 33.46171671 -0.04949158 C41.11280354 -0.06058749 48.76384127 -0.06102369 56.41493225 -0.05497742 C64.30729507 -0.04893637 72.19947967 -0.0612517 80.09181207 -0.08254749 C86.8689964 -0.1001617 93.64612399 -0.10616514 100.42333037 -0.10290974 C104.47057253 -0.10109647 108.51768755 -0.10373738 112.56490898 -0.11762428 C116.37100916 -0.13019516 120.17683144 -0.12826572 123.98292732 -0.11521339 C125.37891865 -0.11284644 126.77492948 -0.1155866 128.17089844 -0.12383652 C130.07818081 -0.1342945 131.98554226 -0.12440592 133.89282227 -0.11352539 C134.95967223 -0.11369313 136.0265222 -0.11386087 137.12570095 -0.1140337 C140.49416876 0.32361467 142.32595889 1.19436388 145.00990295 3.26069641 C147.30375995 6.4693176 147.26314537 9.37841609 147.27059937 13.25079346 C147.27768417 14.47753281 147.28476898 15.70427216 147.29206848 16.96818542 C147.28977474 18.32472266 147.28726505 19.68125954 147.28456116 21.03779602 C147.28890912 22.4686815 147.29409255 23.89956465 147.30004883 25.33044434 C147.313441 29.21474307 147.31401727 33.09894451 147.31148553 36.98326182 C147.31041598 40.22635258 147.31529877 43.46942363 147.32009095 46.71251017 C147.33118686 54.36359699 147.33162305 62.01463473 147.32557678 69.66572571 C147.31953574 77.55808852 147.33185106 85.45027312 147.35314685 93.34260553 C147.37076106 100.11978986 147.37676451 106.89691745 147.37350911 113.67412382 C147.37169584 117.72136598 147.37433674 121.76848101 147.38822365 125.81570244 C147.40079452 129.62180262 147.39886509 133.42762489 147.38581276 137.23372078 C147.38344581 138.6297121 147.38618597 140.02572294 147.39443588 141.42169189 C147.40489387 143.32897426 147.39500529 145.23633572 147.38412476 147.14361572 C147.3842925 148.21046569 147.38446024 149.27731565 147.38463306 150.37649441 C146.94698469 153.74496222 146.07623548 155.57675235 144.00990295 158.26069641 C140.80128176 160.55455341 137.89218327 160.51393882 134.01980591 160.52139282 C132.79306656 160.52847763 131.56632721 160.53556244 130.30241394 160.54286194 C128.94587671 160.54056819 127.58933982 160.53805851 126.23280334 160.53535461 C124.80191787 160.53970257 123.37103472 160.544886 121.94015503 160.55084229 C118.0558563 160.56423446 114.17165486 160.56481073 110.28733754 160.56227899 C107.04424679 160.56120944 103.80117573 160.56609222 100.5580892 160.57088441 C92.90700237 160.58198031 85.25596464 160.58241651 77.60487366 160.57637024 C69.71251084 160.5703292 61.82032624 160.58264452 53.92799383 160.60394031 C47.15080951 160.62155452 40.37368192 160.62755796 33.59647554 160.62430257 C29.54923338 160.6224893 25.50211836 160.6251302 21.45489693 160.63901711 C17.64879675 160.65158798 13.84297447 160.64965855 10.03687859 160.63660622 C8.64088726 160.63423926 7.24487642 160.63697943 5.84890747 160.64522934 C3.9416251 160.65568732 2.03426365 160.64579875 0.12698364 160.63491821 C-1.47329131 160.63516983 -1.47329131 160.63516983 -3.10589504 160.63542652 C-6.47436285 160.19777815 -8.30615298 159.32702894 -10.99009705 157.26069641 C-13.28395405 154.05207522 -13.24333946 151.14297673 -13.25079346 147.27059937 C-13.25787827 146.04386002 -13.26496307 144.81712067 -13.27226257 143.5532074 C-13.26996883 142.19667016 -13.26745914 140.84013328 -13.26475525 139.4835968 C-13.26910321 138.05271132 -13.27428664 136.62182817 -13.28024292 135.19094849 C-13.29363509 131.30664976 -13.29421136 127.42244832 -13.29167962 123.538131 C-13.29061007 120.29504025 -13.29549286 117.05196919 -13.30028504 113.80888265 C-13.31138095 106.15779583 -13.31181715 98.5067581 -13.30577087 90.85566711 C-13.29972983 82.9633043 -13.31204515 75.0711197 -13.33334094 67.17878729 C-13.35095515 60.40160296 -13.3569586 53.62447537 -13.3537032 46.847269 C-13.35188993 42.80002684 -13.35453084 38.75291182 -13.36841774 34.70569038 C-13.38098861 30.89959021 -13.37905918 27.09376793 -13.36600685 23.28767204 C-13.3636399 21.89168072 -13.36638006 20.49566988 -13.37462997 19.09970093 C-13.38508796 17.19241856 -13.37519938 15.2850571 -13.36431885 13.3777771 C-13.36448659 12.31092713 -13.36465433 11.24407717 -13.36482716 10.14489841 C-12.92717878 6.77643061 -12.05642958 4.94464048 -9.99009705 2.26069641 C-6.78147586 -0.03316059 -3.87237736 0.007454 0 0 Z M-6.99009705 8.26069641 C-7.29515555 10.84469844 -7.29515555 10.84469844 -7.24406433 13.90985107 C-7.24970398 15.11148895 -7.25534363 16.31312683 -7.26115417 17.55117798 C-7.25726521 18.88981688 -7.25316885 20.22845519 -7.24888611 21.5670929 C-7.25159501 22.97137127 -7.25515538 24.37564823 -7.25950623 25.77992249 C-7.26864536 29.60016684 -7.26507952 33.4203035 -7.25874805 37.2405498 C-7.25369492 41.23368295 -7.25837768 45.22680669 -7.26152039 49.21994019 C-7.26516246 55.92763428 -7.26035506 62.63528438 -7.25083923 69.3429718 C-7.23995864 77.10237832 -7.2434764 84.86167971 -7.25449204 92.62108368 C-7.26356334 99.27675129 -7.26485084 105.93238722 -7.25961471 112.58805901 C-7.25649356 116.56593013 -7.25608952 120.54375183 -7.26268768 124.5216198 C-7.26845808 128.26198123 -7.26446992 132.00220696 -7.25289917 135.74255371 C-7.25025074 137.11680437 -7.25102079 138.49106642 -7.2554245 139.86531258 C-7.26087401 141.73839032 -7.25283461 143.61149297 -7.24406433 145.48455811 C-7.24331028 146.53372626 -7.24255623 147.58289442 -7.24177933 148.66385555 C-7.17333075 151.49701463 -7.17333075 151.49701463 -4.99009705 154.26069641 C-2.41193475 154.71491359 -2.41193475 154.71491359 0.65905762 154.63491821 C1.8606955 154.64193253 3.06233337 154.64894684 4.30038452 154.65617371 C5.63902448 154.64874531 6.97766279 154.64101414 8.31629944 154.63301086 C9.72057871 154.63543781 11.12485627 154.63915618 12.52912903 154.64407349 C16.3494299 154.65350046 20.16947537 154.64404162 23.98975635 154.63074136 C27.982887 154.61944667 31.9760047 154.62353288 35.96914673 154.62548828 C42.67686651 154.62637199 49.38448537 154.61527573 56.09217834 154.59687805 C63.85159063 154.57571784 71.61085493 154.57219825 79.37029022 154.57844001 C86.82725382 154.58413182 94.28416521 154.57848962 101.74112129 154.56726646 C104.91769945 154.56261716 108.0942457 154.56174807 111.27082634 154.56385231 C115.01119942 154.56573388 118.75142158 154.55764154 122.49176025 154.54179192 C123.86600686 154.53754362 125.24026876 154.53670217 126.61451912 154.53948212 C128.48760791 154.5426967 130.3607055 154.53241045 132.23376465 154.52139282 C133.28293281 154.51933995 134.33210096 154.51728708 135.4130621 154.515172 C138.24612149 154.44331788 138.24612149 154.44331788 141.00990295 152.26069641 C141.46419779 149.66273909 141.46419779 149.66273909 141.38412476 146.56684875 C141.39113907 145.35535156 141.39815338 144.14385437 141.40538025 142.89564514 C141.39795189 141.54597309 141.39022072 140.19630268 141.38221741 138.84663391 C141.38464432 137.43088005 141.38836265 136.0151279 141.39328003 134.59938049 C141.40270661 130.74815675 141.39324895 126.89718636 141.3799479 123.04598236 C141.368655 119.0216873 141.37273923 114.9974051 141.37469482 110.97309875 C141.37557849 104.21410468 141.36448236 97.45521076 141.34608459 90.69624329 C141.32491584 82.87432735 141.32140665 75.0525582 141.32764655 67.23061943 C141.33333511 59.71598745 141.32770056 52.20140734 141.31647301 44.68678284 C141.31182027 41.48425846 141.31095608 38.28176573 141.31305885 35.07923889 C141.31493822 31.31014213 141.30686512 27.54119542 141.29099846 23.77213287 C141.28674466 22.38617829 141.28591238 21.00020851 141.28868866 19.61425018 C141.29189524 17.72767457 141.28163184 15.84109015 141.27059937 13.95454407 C141.2685465 12.89707977 141.26649363 11.83961548 141.26437855 10.75010681 C141.25687297 8.08664444 141.25687297 8.08664444 139.00990295 6.26069641 C136.40614498 5.95558995 136.40614498 5.95558995 133.3160553 6.00672913 C132.10455811 6.00108948 130.89306091 5.99544983 129.64485168 5.98963928 C128.29518068 5.99352823 126.94551026 5.99762459 125.59584045 6.00190735 C124.18008748 5.99919848 122.76433592 5.99563814 121.34858704 5.99128723 C117.49741936 5.98214848 113.64635851 5.98571356 109.7951889 5.9920454 C105.77089137 5.99709773 101.74660318 5.99241609 97.7223053 5.98927307 C90.96333671 5.98563118 84.20441179 5.99043835 77.44544983 5.99995422 C69.62353962 6.01083921 61.80173366 6.00731379 53.97982597 5.99630141 C47.27236982 5.98723487 40.56494511 5.98594015 33.85748482 5.99117875 C29.84778763 5.99430195 25.8381395 5.99469825 21.82844543 5.98810577 C18.05936028 5.98234211 14.29040996 5.9863111 10.52133942 5.99789429 C9.1353808 6.00054614 7.7494109 5.99976686 6.36345673 5.99536896 C4.47689205 5.98993301 2.59030268 5.99794703 0.70375061 6.00672913 C-0.88244583 6.0078602 -0.88244583 6.0078602 -2.50068665 6.00901413 C-5.16423526 6.01323883 -5.16423526 6.01323883 -6.99009705 8.26069641 Z " fill="#A4728D" transform="translate(268.99009704589844,255.7393035888672)"/>
<path d="M0 0 C0.96961166 0.00142502 1.93922333 0.00285004 2.93821716 0.00431824 C4.03597977 0.00124161 5.13374237 -0.00183502 6.26477051 -0.00500488 C7.45436874 0.00218063 8.64396698 0.00936615 9.86961365 0.01676941 C11.692985 0.01745674 11.692985 0.01745674 13.55319214 0.01815796 C16.12636794 0.0211832 18.69954187 0.02907753 21.27268982 0.04142761 C25.22758924 0.05967762 29.18225466 0.06193741 33.13719177 0.06169128 C35.63133444 0.06660647 38.1254755 0.07243479 40.61961365 0.07926941 C41.81123611 0.08038223 43.00285858 0.08149506 44.23059082 0.0826416 C45.87250648 0.09221138 45.87250648 0.09221138 47.54759216 0.10197449 C48.51640823 0.10578629 49.4852243 0.10959808 50.48339844 0.11352539 C52.6782074 0.24723816 52.6782074 0.24723816 53.6782074 1.24723816 C53.8032074 3.74723816 53.8032074 3.74723816 53.6782074 6.24723816 C52.6782074 7.24723816 52.6782074 7.24723816 49.6157074 7.30973816 C48.6463324 7.28911316 47.6769574 7.26848816 46.6782074 7.24723816 C46.54285583 8.23723816 46.54285583 8.23723816 46.4047699 9.24723816 C45.27803684 13.89955529 43.10726739 18.06670184 41.0297699 22.36442566 C39.16905521 26.38947979 39.16905521 26.38947979 38.74461365 30.73942566 C40.36919593 35.10336634 42.2924096 39.31233491 44.23875427 43.54020691 C46.6782074 48.94437843 46.6782074 48.94437843 46.6782074 52.24723816 C47.6475824 52.22661316 48.6169574 52.20598816 49.6157074 52.18473816 C52.6782074 52.24723816 52.6782074 52.24723816 53.6782074 53.24723816 C53.71884572 54.91340931 53.7209284 56.58111911 53.6782074 58.24723816 C51.14236981 59.51515696 49.3644344 59.38109826 46.52586365 59.39250183 C45.45134949 59.39888168 44.37683533 59.40526154 43.26976013 59.41183472 C42.10517273 59.41294754 40.94058533 59.41406036 39.7407074 59.41520691 C38.54969421 59.41853531 37.35868103 59.42186371 36.13157654 59.42529297 C33.6096892 59.43036276 31.08779514 59.43270128 28.56590271 59.43254089 C24.69437195 59.43472902 20.82312525 59.452889 16.9516449 59.47184753 C14.50633338 59.47478103 12.0610205 59.47676612 9.6157074 59.47770691 C8.45112 59.48489243 7.28653259 59.49207794 6.08665466 59.4994812 C5.0121405 59.49640457 3.93762634 59.49332794 2.83055115 59.49015808 C1.88172058 59.4915831 0.93289001 59.49300812 -0.04469299 59.49447632 C-2.3217926 59.24723816 -2.3217926 59.24723816 -4.3217926 57.24723816 C-4.3217926 55.92723816 -4.3217926 54.60723816 -4.3217926 53.24723816 C-3.2699176 53.11962097 -2.2180426 52.99200378 -1.1342926 52.86051941 C1.48843181 52.10767588 2.48337105 51.51282181 4.1157074 49.2877655 C5.43807068 46.71173984 6.57945714 44.11364986 7.6782074 41.43473816 C8.08426208 40.53174988 8.49031677 39.6287616 8.90867615 38.69841003 C11.3670924 32.98867536 11.97768253 30.02511542 9.92552185 24.05900574 C8.9697104 21.71580268 7.98757969 19.3857735 6.9907074 17.05973816 C6.66393005 16.24053894 6.33715271 15.42133972 6.00047302 14.57731628 C3.93937736 9.59948814 3.93937736 9.59948814 -0.52882385 6.82145691 C-1.45050354 6.63196472 -2.37218323 6.44247253 -3.3217926 6.24723816 C-4.3217926 4.24723816 -4.3217926 4.24723816 -4.3217926 2.24723816 C-2.3217926 0.24723816 -2.3217926 0.24723816 0 0 Z " fill="#F4B30A" transform="translate(342.32179260253906,337.7527618408203)"/>
<path d="M0 0 C1.27327904 -0.00021904 1.27327904 -0.00021904 2.57228088 -0.0004425 C5.38594086 0.00025573 8.19953514 0.00804399 11.01318359 0.01586914 C12.96088627 0.01773364 14.90858941 0.01915739 16.85629272 0.02015686 C21.98882334 0.02397956 27.12132576 0.03380775 32.25384521 0.04486084 C37.48872496 0.05508027 42.72360925 0.05965562 47.95849609 0.06469727 C58.23455016 0.07543022 68.51058329 0.09250369 78.78662109 0.11352539 C75.93747925 4.27041139 74.0877634 6.82212246 69.02798462 7.95530701 C67.60595229 7.97547196 66.18304339 7.95738505 64.76171875 7.90820312 C63.57117166 7.90946874 63.57117166 7.90946874 62.3565731 7.91075993 C59.80318149 7.90556052 57.25342937 7.85239927 54.70068359 7.79711914 C53.11826295 7.78681864 51.53581844 7.77968262 49.95336914 7.77575684 C44.10575452 7.73915448 38.2586515 7.64142454 32.41162109 7.55102539 C19.33537109 7.40665039 6.25912109 7.26227539 -7.21337891 7.11352539 C-7.21337891 37.14352539 -7.21337891 67.17352539 -7.21337891 98.11352539 C14.23662109 98.11352539 35.68662109 98.11352539 57.78662109 98.11352539 C56.78662109 103.11352539 56.78662109 103.11352539 55.78662109 104.11352539 C53.75295468 104.2339514 51.71508181 104.28377686 49.67797852 104.30639648 C48.36959518 104.32245941 47.06121185 104.33852234 45.71318054 104.35507202 C44.27282355 104.36655845 42.83245933 104.37716717 41.39208984 104.38696289 C40.66985041 104.39228657 39.94761097 104.39761024 39.20348549 104.40309525 C35.37988978 104.42984557 31.55632692 104.44921334 27.73266602 104.46362305 C23.78117006 104.48026562 19.83050907 104.5250331 15.87932873 104.57599449 C12.84327734 104.60964233 9.80742456 104.62119772 6.77120399 104.62685013 C5.31470683 104.63357084 3.8582231 104.64881452 2.40190697 104.67274094 C0.36264899 104.7043297 -1.67705488 104.70143222 -3.71655273 104.69702148 C-4.87713699 104.70510834 -6.03772125 104.71319519 -7.23347473 104.7215271 C-10.21337891 104.11352539 -10.21337891 104.11352539 -12.55693054 101.70205688 C-15.39530794 97.26652516 -15.37959242 93.88227732 -15.40625 88.7199707 C-15.41442749 87.85149506 -15.42260498 86.98301941 -15.43103027 86.08822632 C-15.45589942 83.2060414 -15.47240487 80.3239058 -15.48681641 77.44165039 C-15.49214008 76.45804283 -15.49746376 75.47443527 -15.50294876 74.46102142 C-15.52968796 69.2540515 -15.54905971 64.04710561 -15.56347656 58.84008789 C-15.58011918 53.46188282 -15.62489168 48.08429114 -15.67584801 42.7063179 C-15.70950818 38.57130226 -15.72105271 34.43643237 -15.72670364 30.30129242 C-15.73342035 28.31895006 -15.74865327 26.33661743 -15.77259445 24.35440826 C-15.80422019 21.57731719 -15.80428664 18.80188215 -15.796875 16.0246582 C-15.81328033 15.20780548 -15.82968567 14.39095276 -15.84658813 13.54934692 C-15.80164221 9.42874175 -15.43527449 6.87933583 -12.8019104 3.61907959 C-8.6499258 -0.39981006 -5.52309722 -0.02462666 0 0 Z " fill="#7F5C00" transform="translate(290.21337890625,274.886474609375)"/>
<path d="M0 0 C9.57 0 19.14 0 29 0 C27.08519709 5.74440872 24.72715274 11.00323438 22.14453125 16.46484375 C19.87622125 23.47105723 22.60772922 28.99923729 25.5625 35.3125 C29 42.77274951 29 42.77274951 29 45 C26.36 45 23.72 45 21 45 C19.02 40.05 17.04 35.1 15 30 C13.01158588 32.98262118 11.46328268 35.97640675 9.875 39.1875 C9.33617187 40.27417969 8.79734375 41.36085938 8.2421875 42.48046875 C7.83226562 43.31191406 7.42234375 44.14335937 7 45 C4.69 45 2.38 45 0 45 C1.89241537 38.92435066 4.16038214 33.4171997 7.109375 27.7734375 C9.19305746 21.28477721 6.16153416 15.50776308 3.4375 9.6875 C0 2.22725049 0 2.22725049 0 0 Z " fill="#070500" transform="translate(353,345)"/>
<path d="M0 0 C1.47583955 0.0001591 2.95168467 0.00585225 4.42749023 0.01586914 C5.20293686 0.01728409 5.97838348 0.01869904 6.77732849 0.02015686 C9.26361893 0.02577194 11.74982059 0.03832693 14.23608398 0.05102539 C15.91772331 0.05603845 17.59936405 0.06060169 19.28100586 0.06469727 C23.41189965 0.07574626 27.54272674 0.09302094 31.67358398 0.11352539 C31.34358398 2.09352539 31.01358398 4.07352539 30.67358398 6.11352539 C27.70358398 6.11352539 24.73358398 6.11352539 21.67358398 6.11352539 C21.67358398 17.33352539 21.67358398 28.55352539 21.67358398 40.11352539 C23.32358398 40.11352539 24.97358398 40.11352539 26.67358398 40.11352539 C28.79858398 41.55102539 28.79858398 41.55102539 30.67358398 43.11352539 C31.66358398 43.44352539 32.65358398 43.77352539 33.67358398 44.11352539 C33.67358398 44.77352539 33.67358398 45.43352539 33.67358398 46.11352539 C21.46358398 46.11352539 9.25358398 46.11352539 -3.32641602 46.11352539 C-3.65641602 44.46352539 -3.98641602 42.81352539 -4.32641602 41.11352539 C-3.32641602 40.11352539 -3.32641602 40.11352539 -1.56054688 40 C-0.81168213 40.00523682 -0.06281738 40.01047363 0.70874023 40.01586914 C1.80134155 40.01961548 1.80134155 40.01961548 2.91601562 40.0234375 C3.84663818 40.0325415 4.77726074 40.04164551 5.73608398 40.05102539 C10.16014648 40.08196289 10.16014648 40.08196289 14.67358398 40.11352539 C14.67358398 28.89352539 14.67358398 17.67352539 14.67358398 6.11352539 C8.73358398 6.11352539 2.79358398 6.11352539 -3.32641602 6.11352539 C-3.65641602 4.46352539 -3.98641602 2.81352539 -4.32641602 1.11352539 C-3.32641602 0.11352539 -3.32641602 0.11352539 0 0 Z " fill="#836000" transform="translate(309.326416015625,304.886474609375)"/>
<path d="M0 0 C0.721875 0.268125 1.44375 0.53625 2.1875 0.8125 C2.06285163 4.92589633 0.5114356 6.73958852 -2.3125 9.5 C-2.9415625 10.08136719 -3.570625 10.66273438 -4.21875 11.26171875 C-6.83761198 13.80997416 -6.81724 14.88597 -7.0625 18.6875 C-7.00177831 21.25649459 -6.78815066 22.87743156 -5.875 25.3125 C-2.99583313 27.40643954 -0.75124765 27.5423263 2.765625 27.41015625 C7.25437529 26.30244852 10.09417926 23.09127162 13.1875 19.8125 C13.8475 19.1525 14.5075 18.4925 15.1875 17.8125 C17.3125 18.1875 17.3125 18.1875 19.1875 18.8125 C19.875 20.5625 19.875 20.5625 20.1875 22.8125 C17.11102394 27.99393336 12.03089203 33.00410015 6.1875 34.8125 C0.89429946 35.55432081 -3.35258174 35.47609921 -8.25 33.25 C-13.06589541 28.66902632 -15.03598204 24.94403861 -15.5 18.375 C-15.30616617 12.94019765 -13.50963768 10.27663335 -9.68359375 6.54296875 C-9.06613281 5.97191406 -8.44867188 5.40085937 -7.8125 4.8125 C-7.34972656 4.27238281 -6.88695312 3.73226563 -6.41015625 3.17578125 C-4.23255287 0.63640351 -3.42939199 -0.22862613 0 0 Z " fill="#F4B30A" transform="translate(358.8125,293.1875)"/>
<path d="M0 0 C5.01767577 2.8511653 7.60590694 5.7868845 9.77734375 11.125 C10.58499755 17.48527369 9.37601269 21.83222083 5.77734375 27.125 C0.36088718 33.88915311 0.36088718 33.88915311 -4.16015625 34.5625 C-4.84078125 34.418125 -5.52140625 34.27375 -6.22265625 34.125 C-7.16015625 32.0625 -7.16015625 32.0625 -7.22265625 29.125 C-5.62976842 27.12513808 -3.88682163 25.47907931 -1.984375 23.7734375 C0.76412699 21.20166845 1.72860998 19.50094624 2.21484375 15.75 C2.05535792 12.02914514 2.05535792 12.02914514 -0.28515625 9.1875 C-3.09665219 6.96679098 -3.09665219 6.96679098 -6.41015625 6.25 C-11.64267528 7.45090601 -14.14869626 10.42916659 -17.79296875 14.25390625 C-20.22265625 16.125 -20.22265625 16.125 -23.02734375 15.90234375 C-23.75179688 15.64582031 -24.47625 15.38929688 -25.22265625 15.125 C-24.74612416 10.56159946 -23.17597467 8.58572758 -19.91015625 5.4375 C-19.13027344 4.67050781 -18.35039062 3.90351563 -17.546875 3.11328125 C-12.31052017 -1.3662223 -6.54260175 -2.57564638 0 0 Z " fill="#F6B40A" transform="translate(387.22265625,275.875)"/>
<path d="M0 0 C0.7427417 0.23154785 1.4854834 0.4630957 2.25073242 0.70166016 C2.5266081 3.68734173 2.56923963 5.23120301 0.86132812 7.75390625 C-1.22341533 9.87784551 -3.31109383 11.99353688 -5.43676758 14.07666016 C-6.51861328 15.20007813 -6.51861328 15.20007813 -7.62231445 16.34619141 C-8.32807617 17.04873047 -9.03383789 17.75126953 -9.76098633 18.47509766 C-10.72717896 19.44068604 -10.72717896 19.44068604 -11.71289062 20.42578125 C-13.74926758 21.70166016 -13.74926758 21.70166016 -16.49853516 21.40332031 C-17.24127686 21.17177246 -17.98401855 20.94022461 -18.74926758 20.70166016 C-19.02514326 17.71597859 -19.06777479 16.1721173 -17.35986328 13.64941406 C-15.27511983 11.5254748 -13.18744133 9.40978343 -11.06176758 7.32666016 C-9.97992188 6.20324219 -9.97992188 6.20324219 -8.8762207 5.05712891 C-8.17045898 4.35458984 -7.46469727 3.65205078 -6.73754883 2.92822266 C-6.09342041 2.28449707 -5.44929199 1.64077148 -4.78564453 0.97753906 C-2.74926758 -0.29833984 -2.74926758 -0.29833984 0 0 Z " fill="#F3B20A" transform="translate(378.749267578125,291.29833984375)"/>
<path d="M0 0 C3.01729419 1.50864709 3.36592542 3.80462514 4.625 6.875 C5.07101562 7.94492187 5.51703125 9.01484375 5.9765625 10.1171875 C7 13 7 13 7 16 C2.38 16 -2.24 16 -7 16 C-6.02394493 13.51956646 -5.04432337 11.04064915 -4.0625 8.5625 C-3.78470703 7.85544922 -3.50691406 7.14839844 -3.22070312 6.41992188 C-1.11328125 1.11328125 -1.11328125 1.11328125 0 0 Z " fill="#835F00" transform="translate(367,374)"/>
<path d="M0 0 C0 4.29 0 8.58 0 13 C-1.98 13 -3.96 13 -6 13 C-6.62645012 4.85614849 -6.62645012 4.85614849 -4.125 1.4375 C-2 0 -2 0 0 0 Z " fill="#7F5D00" transform="translate(379,322)"/>
</svg>
